<svg enable-background="new 0 0 528.2 81.9" viewBox="0 0 528.2 81.9" xmlns="http://www.w3.org/2000/svg" xmlns:xlink="http://www.w3.org/1999/xlink"><clipPath id="a"><path d="m-99.2-140.3h793.7v1122.5h-793.7z"/></clipPath><g transform="matrix(1.3333333 0 0 -1.3333333 -132.77487 602.18952)"><g fill="#f60"><path d="m0 0h-9.1l14 27.2h10.1l13.5-27.2h-10.2l-2 4.9h-14.1zm13.8 10.8-4.3 9.9-4.6-9.9z" transform="translate(208.667 422.6014)"/><path d="m239.2 449.8h8.7v-27.2h-8.7z"/><path d="m252.4 449.8h8.7v-5.5h-8.7zm0-8.3h8.7v-18.9h-8.7z"/></g><g clip-path="url(#a)"><path d="m0 0h8.7v-10.9c1 1.1 2.2 1.9 3.5 2.4s2.7.8 4.2.8c3 0 5.4-1 7.2-2.9s2.7-4.4 2.7-7.6c0-2.9-.9-5.2-2.7-6.9s-4.1-2.6-7.1-2.6c-1.6 0-3.1.3-4.4.9s-2.5 1.5-3.4 2.6c0-.6 0-1.2-.1-1.7 0-.5-.1-1-.2-1.3h-8.7c.1.4.2.8.2 1.3.1.6.1 1.2.1 1.9zm17.5-17.8c0 1.7-.4 3-1.2 3.9-.8 1-1.8 1.4-3.2 1.4s-2.6-.5-3.3-1.4c-.8-.9-1.2-2.3-1.2-4s.4-3 1.2-3.9 1.9-1.4 3.2-1.4c1.4 0 2.4.5 3.2 1.4.9 1.1 1.3 2.4 1.3 4" fill="#f60" transform="translate(265.8913 449.7558)"/><path d="m0 0c-.8-1.1-1.9-1.9-3.2-2.4-1.4-.6-3-.8-4.9-.8-2.7 0-4.8.5-6.2 1.4-1.4 1-2.2 2.3-2.2 4.1 0 2.4 1.2 4.1 3.7 5.2 2.6 1 6.8 1.6 12.7 1.6v.2.2c0 1-.3 1.7-.9 2.2s-1.5.7-2.6.7-1.9-.2-2.4-.5c-.6-.3-.9-.9-1-1.6h-8.1c0 2.1 1 3.7 3 4.7s4.9 1.5 8.9 1.5c3.8 0 6.7-.6 8.6-1.8s2.8-3 2.8-5.5v-9.6c0-.6 0-1.1.1-1.4.1-.4.1-.7.3-1h-8.1c-.2.5-.3.9-.4 1.4-.1.4-.1.9-.1 1.4m-.2 5.4c-2.8 0-4.7-.2-5.8-.6-1-.4-1.5-1-1.5-1.9 0-.6.2-1.1.7-1.5.5-.3 1.2-.5 2.1-.5 1.5 0 2.6.3 3.3 1s1.1 1.7 1.1 3.1z" fill="#f60" transform="translate(312.1904 425.6351)"/><path d="m0 0h8.7v-10.9c1 1.1 2.2 1.9 3.5 2.4s2.7.8 4.2.8c3 0 5.4-1 7.2-2.9s2.7-4.4 2.7-7.6c0-2.9-.9-5.2-2.7-6.9s-4.1-2.6-7.1-2.6c-1.6 0-3.1.3-4.4.9s-2.5 1.5-3.4 2.6c0-.6 0-1.2-.1-1.7 0-.5-.1-1-.2-1.3h-8.7c.1.4.2.8.2 1.3.1.6.1 1.2.1 1.9zm17.5-17.8c0 1.7-.4 3-1.2 3.9-.8 1-1.9 1.4-3.2 1.4-1.4 0-2.6-.5-3.3-1.4-.8-.9-1.2-2.3-1.2-4s.4-3 1.2-3.9 1.9-1.4 3.2-1.4c1.4 0 2.4.5 3.2 1.4.9 1.1 1.3 2.4 1.3 4" fill="#f60" transform="translate(324.366 449.7558)"/><path d="m0 0c-.8-1.1-1.9-1.9-3.2-2.4-1.4-.6-3-.8-4.9-.8-2.7 0-4.8.5-6.2 1.4-1.4 1-2.2 2.3-2.2 4.1 0 2.4 1.2 4.1 3.7 5.2 2.6 1 6.8 1.6 12.7 1.6v.2.2c0 1-.3 1.7-.9 2.2s-1.5.7-2.6.7-1.9-.2-2.4-.5c-.6-.3-.9-.9-1-1.6h-8.1c0 2.1 1 3.7 3 4.7s4.9 1.5 8.9 1.5c3.8 0 6.7-.6 8.6-1.8s2.8-3 2.8-5.5v-9.6c0-.6 0-1.1.1-1.4.1-.4.2-.7.3-1h-8.1c-.2.5-.3.9-.4 1.4-.1.4-.1.9-.1 1.4m-.2 5.4c-2.8 0-4.7-.2-5.8-.6-1-.4-1.5-1-1.5-1.9 0-.6.3-1.1.7-1.5.5-.3 1.2-.5 2.1-.5 1.5 0 2.6.3 3.3 1s1.1 1.7 1.1 3.1z" fill="#f60" transform="translate(370.6665 425.6351)"/><path d="m0 0v3.2h11.4v-10c-1.7-1.4-3.5-2.5-5.4-3.2s-3.8-1-5.7-1c-2.6 0-5.1.6-7.2 1.7-2.2 1.1-3.8 2.8-4.9 4.9-1.1 2.2-1.7 4.5-1.7 7.2 0 2.6.5 5.1 1.6 7.4s2.7 4 4.7 5.1c2.1 1.1 4.4 1.7 7.1 1.7 2 0 3.7-.3 5.3-.9s2.8-1.5 3.7-2.6 1.6-2.6 2-4.4l-3.1-1.1c-.4 1.4-.9 2.5-1.5 3.2-.6.8-1.5 1.4-2.6 1.9s-2.3.7-3.7.7c-1.6 0-3-.2-4.2-.7s-2.1-1.2-2.9-2c-.7-.8-1.3-1.7-1.7-2.7-.7-1.7-1-3.5-1-5.4 0-2.4.4-4.4 1.2-6.1.8-1.6 2-2.8 3.6-3.6s3.3-1.2 5-1.2c1.5 0 3 .3 4.5.9s2.7 1.3 3.4 2v5z" fill="#f60" transform="translate(405.4789 432.8857)"/><path d="m0 0v19.6h3v-3c.8 1.4 1.5 2.3 2.1 2.7.7.5 1.4.7 2.1.7 1.1 0 2.3-.4 3.4-1.1l-1.2-3.1c-.8.5-1.6.7-2.4.7-.7 0-1.4-.2-2-.7-.6-.4-1-1-1.2-1.8-.4-1.2-.6-2.5-.6-3.9v-10.1z" fill="#f60" transform="translate(422.1429 422.2315)"/><path d="m0 0c0 3.6 1 6.3 3 8 1.7 1.4 3.7 2.2 6.1 2.2 2.7 0 4.9-.9 6.6-2.6 1.7-1.8 2.6-4.2 2.6-7.3 0-2.5-.4-4.5-1.1-5.9-.8-1.4-1.9-2.6-3.3-3.4s-3-1.2-4.7-1.2c-2.7 0-4.9.9-6.6 2.6-1.8 1.8-2.6 4.3-2.6 7.6m3.4 0c0-2.5.5-4.4 1.6-5.6s2.5-1.9 4.1-1.9 3 .6 4.1 1.9 1.6 3.2 1.6 5.7c0 2.4-.5 4.2-1.6 5.5-1.1 1.2-2.5 1.9-4.1 1.9-1.7 0-3-.6-4.1-1.9-1-1.2-1.6-3.1-1.6-5.6" fill="#f60" transform="translate(433.4608 432.0049)"/><path d="m0 0v2.9c-1.5-2.2-3.6-3.3-6.2-3.3-1.2 0-2.2.2-3.2.7-1 .4-1.7 1-2.2 1.7s-.8 1.5-1 2.5c-.2.5-.3 1.5-.3 2.9v12.1h3.3v-10.8c0-1.7.1-2.9.2-3.5.3-.8.7-1.5 1.4-2s1.5-.7 2.5-.7 1.9.3 2.8.8 1.5 1.2 1.8 2.1c.4.9.5 2.1.5 3.8v10.5h3.4v-19.7z" fill="#f60" transform="translate(468.9684 422.6609)"/><path d="m0 0v27h3v-2.5c.7 1 1.5 1.7 2.4 2.2s2 .7 3.3.7c1.7 0 3.1-.4 4.4-1.3s2.2-2.1 2.9-3.6c.7-1.6 1-3.3 1-5.1 0-2-.4-3.8-1.1-5.4s-1.8-2.8-3.1-3.7c-1.4-.8-2.8-1.2-4.3-1.2-1.1 0-2.1.2-3 .7-.9.4-1.6 1-2.2 1.7v-9.5zm3 17.1c0-2.5.5-4.4 1.5-5.6s2.2-1.8 3.7-1.8 2.7.6 3.8 1.9c1.1 1.2 1.6 3.2 1.6 5.8 0 2.5-.5 4.4-1.5 5.6s-2.2 1.9-3.7 1.9c-1.4 0-2.7-.7-3.7-2-1.2-1.3-1.7-3.2-1.7-5.8" fill="#f60" transform="translate(478.7327 414.7494)"/><path d="m.3.6c-.5.1-1.2.5-1.8.9-5.1 5 1.5 10.8 9.1 14.1v9.5c1.8-1.1 2.8-1.2 2.8-1.3l5.8 5.8-1.9 5c17 5.9 23.9 8.1 37.7 10.5l-2.5 2.3 4 2.3c9.3-3.1 18.1-3.9 16.6-11.7.4 5.3-6.2 7.3-16.2 10.1l-1.9-1.2 3.7-3.1c-16.5-2.8-26.7-6.1-38.9-10.3l1.7-4.3-6.1-6c1-.3 11.6-3.8 22.7 3.9 0 0 .2.2.2.2-.3.5-1.1 1.1-2 1.9 3.2-.2 5.3-3.1 5-6h-1.5c.1 1-.1 2-.4 2.7-8.6-6.3-18.5-7.2-27-4.2v-7.4c-4.1-1.4-11.4-5.9-11.4-10.3.3-2.1 1.4-2.9 2.3-3.4" transform="translate(112.6077 398.8102)"/><g fill="#f60"><path d="m0 0c-9.2-4.6-18-8.4-31.5-8.9-17.6.4-20.4 12.1-12 24.3 7.9 12.3 20.4 23.5 40.3 30.5 5.8 2 14.2 4.4 22.4 4.5 11.8.1 23.2-3.6 22.4-14.8-.4-8.7-12.9-20.9-19.4-29.6-2.8-3.8-3.3-6.3 1.5-6.1 17.4 1.1 33.2 7.2 47.8 13.4-9.9-6.7-61.2-32.1-61.4-14.8.1 2.2 1.1 4.5 2.7 7s3.9 5.1 6.2 7.7c3.5 4 12.2 13.5 15.1 19.2 4.9 10.8-6.1 11.4-15.6 14.7l-4-2.3 2.5-2.3c-13.8-2.3-20.7-4.5-37.7-10.4l1.9-5-5.8-5.8c-.2.2-1 .2-2.8 1.3v-9.5c-7.6-3.3-14.2-9.1-9-14.1.5-.4 1.3-.9 1.8-.9 9.3-5.3 34.6 1.9 34.6 1.9" transform="translate(147.6202 401.2868)"/><path d="m0 0h1.2c.3 0 .5 0 .6.1.2 0 .3.1.3.2.1.1.1.2.1.4s-.1.4-.2.5-.3.2-.7.2h-1.3zm-.6-2.4v4.3h1.9c.4 0 .7 0 .9-.1s.4-.2.5-.4.2-.4.2-.6c0-.3-.1-.6-.3-.8-.3-.3-.6-.4-1-.5.2 0 .3-.1.4-.2s.3-.3.4-.5l.7-1.2h-.6l-.6.9c-.1.2-.3.4-.4.6-.1.1-.2.2-.3.3-.1 0-.1.1-.2.1s-.2 0-.3 0h-.7v-1.9z" transform="translate(202.4596 395.08025)"/><path d="m0 0c2.2 0 4.1 1.8 4.1 4.1 0 2.2-1.8 4.1-4.1 4.1-2.2 0-4.1-1.8-4.1-4.1s1.9-4.1 4.1-4.1m-3.4 4.1c0 1.9 1.5 3.4 3.4 3.4s3.4-1.5 3.4-3.4-1.5-3.4-3.4-3.4c-1.9-.1-3.4 1.5-3.4 3.4" transform="translate(203.6136 390.7014)"/><path d="m0 0v-23c1.6 0 3.4 1.4 3.4 3v1.2h1.9c1.3.1 2.8 1.9 2.8 2.8v5.1c0 1-1.1 1.7-1.6 2 .5.5 1.6 1.3 1.6 2.3v6.6zm4.7-7.6c0-.4-.3-1-.7-1.4 0-.1-.2-.3-.2-.3s-.1-.1-.1-.1h1.1v-6.6h-1.4v13.2h1.3zm12.8-7.3v10.3h-8.1v-14.1h4c.6.1 1.4.3 2 .8.4.3.7.5 1 .8.7.7 1.1 1.4 1.1 2.2m-4.9 7.6h1.7v-8.8h-1.7zm-4 7.3v-2.8h9.7v-20.2c1.1 0 3.4 1.1 3.4 3.2v17c.7 0 1.3 2 1.3 2.8z" transform="translate(239.1693 413.9156)"/><path d="m0 0v2.2h6.8c1 0 1.9 1.7 2.4 2.6h-9.2v1.8h5.1c1.5 0 3.8 2 3.9 3.1v10.7h-22v-13.8h8.8v-1.9h-8.8v-2.5h8.8v-2.2h-9.1v-2.7h20.7c.9 0 1.6 1.7 2.3 2.7zm0 12.2h1.8c.3 0 .5.1.8.3s1.9 2.1 2.1 2.3h-4.7v3h5v-8.6h-5zm-9 0h4.9v-3h-4.9zm0 5.6h4.9v-3h-4.9z" transform="translate(276.8953 393.5538)"/><path d="m0 0v6.5h14.1c1.3 0 3.6 2.1 3.6 3.2v10.3h-21.9v-19.8c0-1.6 1-3.2 2.7-3.2h16.7c1.3 0 2.8 2 3 3zm8.9 17.1h4.6v-7.7h-4.6zm-8.9 0h4.9v-7.7h-4.9z" transform="translate(292.3643 393.8726)"/><path d="m0 0v6.5h14.1c1.3 0 3.6 2.1 3.6 3.2v10.3h-21.8v-19.8c0-1.6 1-3.2 2.7-3.2h16.7c1.3 0 2.8 2 3 3zm8.9 17.1h4.6v-7.7h-4.6zm-8.9 0h4.9v-7.7h-4.9z" transform="translate(318.7608 393.8726)"/><path d="m0 0v.7h1.6v-.6h9.9s-.2-1.3-2.4-1.3h-7.4v-3.6c0-2.7-1.7-3-1.7-3v6.5h-11.8v1.3z" transform="translate(350.9519 398.1035)"/><path d="m0 0h1.8s-1.8-2.4-2.4-3-1.3-1.6-2.4-1.6c-.6 0-.8 0-.8 0z" transform="translate(342.9189 395.0523)"/><path d="m0 0h-1.8s1.8-2.4 2.4-3 1.3-1.6 2.4-1.6h.8z" transform="translate(359.7723 395.0523)"/><path d="m0 0c2.1 0 2.5 1.3 2.5 1.3h-9.9l.7.9h-1.6l-.8-1h-6.6l.8 1h-1.7l-4.2-5.5h1.8v-7.5h.4c2.6 0 2.8.3 2.8.3h15.8c2.1 0 2.3 1.3 2.3 1.3h-9.8v2.2h7.5c2.1 0 2.4 1.3 2.4 1.3h-9.9v2.2h7.5c2.1 0 2.4 1.4 2.4 1.4h-9.9v2.1zm-17.5-7h8.4v-2.1h-8.4zm0 3.4h8.4v-2.1h-8.4zm8.4 1.4h-8.4v.7l.4.6.6.7h7.4z" transform="translate(359.9891 411.6483)"/><path d="m0 0v-23.3h19.6c1.5 0 2 1.4 2 2.8v20.5zm19.9-20.2c0-.8-.2-1.5-1.3-1.5h-17.1v20.4h18.5z" transform="translate(367.4394 413.9156)"/><path d="m0 0-4.9-8.9s1.7-.3 2.4 1.3l4.2 7.6z" transform="translate(376.1575 404.484)"/><path d="m0 0c0-.5-.2-.7-.5-.7h-1.7v-1.3h2.1c1.3 0 1.7.5 1.7 1.9v8.7c1.6 0 1.7 1.4 1.7 1.4h-1.7v3h-1.6v-3h-11.1v-1.5h11.1z" transform="translate(382.3366 397.2286)"/></g></g></g></svg>