<svg fill="none" height="60" viewBox="0 0 200 200" width="60" xmlns="http://www.w3.org/2000/svg" xmlns:xlink="http://www.w3.org/1999/xlink"><linearGradient id="a" gradientUnits="userSpaceOnUse" x1="12.5192" x2="118.604" y1="178.633" y2="178.633"><stop offset="0" stop-color="#153e5c"/><stop offset="1" stop-color="#271c41"/></linearGradient><linearGradient id="b" gradientUnits="userSpaceOnUse" x1="138.817" x2="117.469" y1="126.431" y2="192.076"><stop offset=".1545" stop-color="#691b26"/><stop offset=".5166" stop-color="#cd907f" stop-opacity=".5"/></linearGradient><linearGradient id="c" gradientUnits="userSpaceOnUse" x1="111.338" x2="146.854" y1="217.047" y2="217.047"><stop offset="0" stop-color="#9776a6"/><stop offset="1" stop-color="#271c41"/></linearGradient><linearGradient id="d"><stop offset="0" stop-color="#153e5c"/><stop offset=".9956" stop-color="#aac0dc"/></linearGradient><linearGradient id="e" gradientUnits="userSpaceOnUse" x1="-5.8865" x2="65.7573" xlink:href="#d" y1="222.818" y2="222.818"/><linearGradient id="f" gradientUnits="userSpaceOnUse" x1="148.714" x2="225.735" xlink:href="#d" y1="206.291" y2="206.291"/><clipPath id="g"><path d="m.579102 100.312c0-54.8592 44.472298-99.331531 99.331698-99.331531 54.8592 0 99.3312 44.472331 99.3312 99.331531 0 54.86-44.472 99.332-99.3312 99.332-54.8594 0-99.331698-44.472-99.331698-99.332z"/></clipPath><g clip-path="url(#g)"><path d="m.579102 100.312c0-54.8592 44.472298-99.331531 99.331698-99.331531 54.8592 0 99.3312 44.472331 99.3312 99.331531 0 54.86-44.472 99.332-99.3312 99.332-54.8594 0-99.331698-44.472-99.331698-99.332z" fill="#8677a7"/><path d="m133.336 133.475c-3.66 17.318-7.677 35.797-14.729 58.383-.536 1.785-1.161 3.66-1.786 5.535-1.696 5.177-3.57 10.623-5.534 16.247-9.463 26.156-19.2829 47.403-26.9602 62.579-23.9245-7.053-47.849-14.105-71.7736-21.158.4464-25.977 3.3923-63.65 15.176-107.303 4.3743-15.979 10.8018-39.993 19.8181-62.3108.6249-1.5176 1.2498-2.946 1.8747-4.4636 11.6945-27.7631 27.3168-51.7769 47.5813-53.2053 17.1397-1.1605 33.2977 14.1941 40.5287 27.0491 3.482 6.1596 8.57 18.2111-4.196 78.6476z" fill="#19233d"/><path d="m118.607 191.858c-.535 1.785-1.16 3.66-1.785 5.534-1.696 5.178-3.571 10.624-5.535 16.248-9.463 26.156-19.2824 47.402-26.9597 62.578-23.9245-7.052-47.8491-14.104-71.7736-21.157.4464-25.978 3.3923-63.65 15.176-107.303 4.3743-15.98 10.8018-39.993 19.8181-62.3111.6249-1.5176 1.2498-2.9459 1.8747-4.4635z" fill="url(#a)" opacity=".35"/><path d="m154.135 153.828-7.142 27.942c0 .089-.089.178-.089.178-2.767 7.41-5.446 16.694-7.052 27.585-.09.893-.268 1.785-.357 2.678-.625 5.267-.982 10.355-1.072 15.176v3.303c.09 7.499.804 14.194 1.696 20.086.447 2.767.982 5.356 1.429 7.677v.179l-.09.089c-.714.803-2.767 3.035-6.07 5.535-1.16.893-2.499 1.875-4.017 2.857-6.606 4.285-16.247 8.48-28.12 7.855-11.2484-.535-19.9077-5.177-25.0854-8.837-2.2318-1.607-3.9279-3.036-4.8206-3.928.4463-1.697.8927-3.303 1.2498-4.821h-.0893c.7142-2.946 1.3391-5.713 1.7854-8.391.5356-3.214.982-6.249 1.1605-9.017.0893-1.339.1786-2.678.2678-4.017 0-.357 0-.625 0-.982.0893-1.339.0893-2.589 0-3.839-.0892-7.052-1.0712-12.408-2.0532-16.336-1.6068-6.428-5.7133-18.301-9.8197-29.281 0-.089-.0893-.178-.0893-.268-.0893-.268-.1786-.535-.3571-.892-2.0532-5-3.4815-9.017-4.3743-11.606-3.0352-8.748-6.4274-18.032-5.8025-18.836 2.8566-2.142 5.4454-4.017 7.7665-5.624h.0893c1.1605-.803 2.2317-1.517 3.303-2.142 2.4996-1.607 4.9991-3.125 7.0524-4.375.8034-.446 1.5176-.892 2.1425-1.339.6248-.357 1.2497-.714 1.7854-1.071 1.9639-1.16 6.7845-4.642 10.6232-8.213l.6249-.625c1.8747-1.785 3.4815-3.57 4.285-4.999 2.8566-4.999 4.0171-10.177 4.285-15.087.1785-2.499.0892-4.909-.1786-7.23-.6249-6.0709-2.321-11.07-3.303-13.7481 8.8373 1.1605 17.7653 2.321 26.6023 3.4815-.267 3.303-.357 6.9631-.178 10.8016.178 3.392.535 6.963 1.25 10.534.714 3.482 1.696 7.053 3.124 10.623 0 .09.089.179.089.179.714 1.785 1.518 3.571 2.5 5.267.357.625.714 1.339 1.16 1.964.179.268.268.535.447.803.625.893 1.25 1.786 1.874 2.678 2.768 3.75 5.357 5.624 8.392 7.41.178.089.446.268.625.357.535.357 1.071.625 1.607.982.267.178.446.268.714.446 3.571 1.786 7.32 4.196 12.23 8.838z" fill="#e6a67f"/><path d="m124.854 124.905c-3.393-.268-7.856-1.071-12.498-3.125-7.856-3.392-12.5873-8.48-14.819-11.248.1785-2.499.0892-4.91-.1786-7.231l23.2106.536c-.268 2.232-.357 6.07 1.25 10.534.624 3.481 1.606 7.052 3.035 10.534z" fill="#002544" opacity=".13"/><path d="m153.957 153.828-7.141 27.942c0 .089-.09.178-.09.178-2.767 7.41-5.445 16.694-7.052 27.585l-52.8483-9.374 40.4393-69.809c1.072 1.874 2.232 3.66 3.482 5.445 2.767 3.749 5.356 5.624 8.391 7.41.179.089.447.267.625.357.536.357 1.071.625 1.607.982.268.178.446.267.714.446 3.214 1.785 7.053 4.196 11.873 8.838z" fill="url(#b)" opacity=".25"/><path d="m128.961 133.118c-2.41 2.946-7.32 7.588-14.64 9.105-.358-.178-.804-.357-1.25-.357-.714 0-1.339.268-1.786.804-.357 0-.714.089-1.071.089-.268 0-.536 0-.714 0-8.481 0-16.4259-4.464-21.1572-11.605l.6249-.625c4.7313 7.231 12.8553 11.605 21.2463 11.337 9.552-.268 15.712-6.249 18.39-9.552 0 .268.178.536.357.804z" fill="#fff" opacity=".64"/><path d="m114.322 142.223c-.357-.178-.804-.357-1.25-.357-.714 0-1.339.268-1.786.804-.446.446-.714 1.071-.714 1.785 0 1.428 1.161 2.5 2.5 2.5s2.499-1.161 2.499-2.5c0-.982-.535-1.785-1.249-2.232z" fill="#fff" opacity=".64"/><path d="m132.441 60.0051c-2.767.5356-9.819 1.6069-17.764-1.6961-10.713-4.5528-14.9979-13.9263-15.8906-16.0688-.0893 0-.1786.0893-.1786.0893-1.5176 6.6953-2.8566 13.6584-4.1064 20.9786-1.964 11.6052-3.303 22.5855-4.1957 32.9409 4.642 6.606 10.7123 11.248 16.6933 13.748 1.696.714 10.534 3.392 16.962.535 10.712-4.642 16.247-25.5311 8.48-50.5269z" fill="#e6a67f"/><path d="m110.926 74.3773c1.183 0 2.143-.9592 2.143-2.1425s-.96-2.1425-2.143-2.1425-2.142.9592-2.142 2.1425.959 2.1425 2.142 2.1425z" fill="#000"/><path d="m130.297 71.7884c1.184 0 2.143-.9592 2.143-2.1425s-.959-2.1425-2.143-2.1425c-1.183 0-2.142.9592-2.142 2.1425s.959 2.1425 2.142 2.1425z" fill="#000"/><path d="m121.461 70.9854c.893 2.6781 2.41 5.9811 5.088 9.2841 2.054 2.4996 3.75 3.7494 3.393 5.0884-.268 1.1606-2.232 2.2318-8.481 2.4996 0-5.624 0-11.2481 0-16.8721z" fill="#c5856e"/><g fill="#000"><path d="m120.032 97.3198c-1.339 0-3.035-.2678-4.731-.982-3.928-1.7854-5.535-5.1777-5.981-6.5167-.089-.2679 0-.6249.357-.7142.268-.0893.625 0 .714.3571.357.982 1.785 4.1957 5.446 5.8919 3.124 1.4283 6.159.8034 7.231.5356.267-.0893.624.0892.624.3571.09.2678-.089.6248-.357.6248-.625.1786-1.785.4464-3.303.4464z"/><path d="m112.265 59.469c-1.607.4464-3.303.8034-4.91 1.2498-1.874.4463-3.838.982-5.713 1.4283.536-.6249 2.321-2.4995 5.356-3.1244 2.411-.4464 4.375.0892 5.267.4463z"/><path d="m135.475 64.647c-1.607-.3571-3.303-.8035-4.91-1.1606-1.875-.4463-3.839-.8927-5.713-1.4283.803-.2678 3.213-1.0713 6.159-.2678 2.411.7141 3.839 2.1425 4.464 2.8567z"/></g><path d="m141.457 258.632c0 .089 0 .178.089.268-.803.892-4.017 4.374-9.195 7.855-.178.179-.357.268-.625.447-2.142 1.428-4.553 2.767-7.231 4.017-1.16.536-2.321.982-3.571 1.428-5.088 1.786-10.98 2.946-17.675 2.678-1.161-.089-2.321-.178-3.3924-.357-.8928-.089-1.6962-.268-2.5889-.357-3.9279-.714-7.4987-1.964-10.6232-3.303-.5356-.268-1.0713-.535-1.6069-.803-5.0884-2.5-8.7485-5.356-10.8017-7.142-.4464-.357-.7142-.625-.982-.893 0 0 0 0 0-.089s.0893-.089.0893-.178c.2678-.982.5356-1.875.8034-2.768.1785-.714.3571-1.428.5356-2.053 1.6069-6.428 2.4996-12.23 2.9459-17.408.0893-1.339.1786-2.678.2679-4.017 0-.357 0-.625 0-.982.0892-1.339.0892-2.589 0-3.839-.0893-6.873-1.0713-12.14-2.0533-15.979 0-.089 0-.089 0-.179 0 0 0 0 0-.089v-.089c-.0892-.268-.1785-.536-.2678-.893-.0892-.178-.0893-.446-.1785-.714-.0893-.357-.1786-.625-.2678-.982 0-.179-.0893-.268-.0893-.446-.0893-.179-.0893-.447-.1785-.625-.0893-.268-.1786-.625-.2679-.893 0-.089 0-.089-.0892-.179-.0893-.357-.1786-.714-.3571-1.071-.0893-.268-.1785-.535-.2678-.892-.3571-1.072-.7142-2.054-1.0713-3.214 0-.089 0-.089-.0893-.179-.1785-.446-.2678-.892-.4463-1.25 0-.089 0-.089-.0893-.178l-.1785-.446v-.09c-.5356-1.428-.982-2.946-1.5176-4.552-.2678-.715-.4464-1.34-.7142-2.054-1.1605-3.481-2.4996-6.963-3.7494-10.444l.0893-.09c1.1605-.892 2.2318-1.696 3.3923-2.499.5357-.447 1.0713-.804 1.6962-1.161s1.0712-.803 1.6961-1.16c.1785-.179.4464-.268.6249-.447.2678-.178.4463-.357.7142-.446.7141-.446 1.339-.893 1.9639-1.339.3571-.268.8035-.536 1.1605-.714.1786-.089.2678-.179.4464-.268.4463-.268.982-.625 1.4283-.893.5356-.357 1.0713-.625 1.5176-.892.8927-.536 1.7854-.982 2.6781-1.429.3571-.178.8035-.446 1.1606-.625.0892 0 .0892-.089.1785-.089h.0893c.1785-.089.2678-.178.4463-.178.4464-.179.8034-.447 1.2498-.625.0893-.09.1786-.09.3571-.179.2678-.178.6249-.268.8927-.446.2678-.179.6249-.268.8927-.447.6249-.267 1.1605-.535 1.7854-.803.5357-.268 1.1605-.446 1.6962-.714.2678-.089.5356-.179.7141-.268.3571-.089.6249-.268.982-.357.3571-.179.8034-.268 1.1605-.446.4464-.179.8927-.268 1.3391-.447.1785-.089.4463-.178.6249-.178.1785-.09.4463-.09.6249-.179.5356-.178 1.0712-.268 1.5176-.446.5356-.179 1.0716-.268 1.5176-.447.268-.089.625-.178.893-.178.535-.179 1.071-.268 1.696-.357.268-.09.625-.09.893-.179.357-.089.624-.089.982-.178.178 0 .446-.09.624-.09.179 0 .447-.089.625-.089.179 0 .447-.089.625-.089.179 0 .447-.089.625-.089.446-.09.804-.09 1.25-.179.446 0 .803-.089 1.16-.089h.625.447.089c3.392-.179 6.606 0 9.552.535.357.09.714.09.982.179s.625.089.893.179h.178c.268.089.536.089.804.178.357.089.714.179.982.268h.178c.357.089.714.178.982.268.357.089.803.268 1.161.357.267.089.535.178.803.268.179.089.357.089.446.178h.09c.178.089.267.089.446.179.179.089.357.089.446.178.447.179.893.357 1.339.536.447.178.893.446 1.339.625.179.089.447.178.625.357.179.089.447.178.625.357.179.089.357.178.625.357.357.178.804.446 1.161.714.178.089.357.268.535.357.09.089.179.089.268.179.446.268.893.535 1.339.892.179.179.446.268.625.447.803.535 1.518 1.16 2.232 1.696.268.268.535.446.803.714s.536.446.804.714c.267.268.446.447.714.714.089.09.268.179.357.358.089.089.178.178.357.357.179.178.446.446.625.625.178.178.357.446.536.624.089.09.178.179.267.268.09.089.179.179.268.268l.268.268c.178.178.268.357.446.535.179.179.268.358.447.536.089.089.178.179.268.268.267.357.535.714.714.982l.089.089c-2.946 8.034-5.892 18.301-7.41 30.441-.624 5.178-.982 10.177-1.071 14.909v3.303c0 1.339 0 2.588.089 3.838v.179c0 .625.09 1.339.09 1.964s.089 1.339.089 1.964c.089 1.874.268 3.749.446 5.535.09.624.179 1.249.179 1.785.089.536.089 1.071.178 1.607.09.446.179.982.179 1.428.089.446.179.982.179 1.429.178.981.267 1.874.446 2.767.089.446.178.893.268 1.339.089.357.089.714.178.982.09.446.179.982.268 1.428 0 .09 0 .179.089.268.09.357.179.714.179 1.071.268-.357.268-.268.268-.178z" fill="#8677a7"/><path d="m76.2005 178.467c-.0893.982-.982 1.874-2.1425 1.874-.1786 0-.3571 0-.6249-.089.2678-.178.4463-.357.7142-.446.7141-.536 1.339-.982 2.0532-1.339z" fill="#004e5a"/><path d="m74.0575 192.125c1.1833 0 2.1425-.879 2.1425-1.964 0-1.084-.9592-1.964-2.1425-1.964-1.1832 0-2.1425.88-2.1425 1.964 0 1.085.9593 1.964 2.1425 1.964z" fill="#87aeb4"/><path d="m86.7353 176.324c1.1832 0 2.1424-.879 2.1424-1.964s-.9592-1.964-2.1424-1.964c-1.1833 0-2.1425.879-2.1425 1.964s.9592 1.964 2.1425 1.964z" fill="#87aeb4"/><path d="m86.7353 188.197c1.1832 0 2.1424-.879 2.1424-1.963 0-1.085-.9592-1.964-2.1424-1.964-1.1833 0-2.1425.879-2.1425 1.964 0 1.084.9592 1.963 2.1425 1.963z" fill="#004e5a"/><path d="m86.7353 200.071c1.1832 0 2.1424-.88 2.1424-1.964 0-1.085-.9592-1.964-2.1424-1.964-1.1833 0-2.1425.879-2.1425 1.964 0 1.084.9592 1.964 2.1425 1.964z" fill="#87aeb4"/><path d="m100.838 167.219c-.357.714-1.0709 1.16-1.9636 1.16-.4464 0-.8034-.089-1.1605-.357.5356-.178 1.0712-.268 1.5176-.446.5356-.089 1.0715-.179 1.6065-.357z" fill="#87aeb4"/><path d="m98.8754 180.252c1.1836 0 2.1426-.879 2.1426-1.964 0-1.084-.959-1.964-2.1426-1.964-1.1833 0-2.1425.88-2.1425 1.964 0 1.085.9592 1.964 2.1425 1.964z" fill="#004e5a"/><path d="m98.8754 192.125c1.1836 0 2.1426-.879 2.1426-1.964 0-1.084-.959-1.964-2.1426-1.964-1.1833 0-2.1425.88-2.1425 1.964 0 1.085.9592 1.964 2.1425 1.964z" fill="#87aeb4"/><path d="m111.016 175.789c1.183 0 2.142-.88 2.142-1.964 0-1.085-.959-1.964-2.142-1.964-1.184 0-2.143.879-2.143 1.964 0 1.084.959 1.964 2.143 1.964z" fill="#87aeb4"/><path d="m111.016 187.662c1.183 0 2.142-.879 2.142-1.964s-.959-1.964-2.142-1.964c-1.184 0-2.143.879-2.143 1.964s.959 1.964 2.143 1.964z" fill="#004e5a"/><path d="m111.016 199.534c1.183 0 2.142-.879 2.142-1.964 0-1.084-.959-1.964-2.142-1.964-1.184 0-2.143.88-2.143 1.964 0 1.085.959 1.964 2.143 1.964z" fill="#87aeb4"/><path d="m124.853 166.951c-.357.535-.982.893-1.786.893-1.071 0-1.964-.804-2.142-1.786.357.089.714.089.982.179.268.089.625.089.892.178h.179c.268.089.536.089.803.179.447.178.715.268 1.072.357z" fill="#87aeb4"/><path d="m123.067 179.716c1.184 0 2.143-.879 2.143-1.963 0-1.085-.959-1.964-2.143-1.964-1.183 0-2.142.879-2.142 1.964 0 1.084.959 1.963 2.142 1.963z" fill="#004e5a"/><path d="m123.067 191.59c1.184 0 2.143-.88 2.143-1.964 0-1.085-.959-1.964-2.143-1.964-1.183 0-2.142.879-2.142 1.964 0 1.084.959 1.964 2.142 1.964z" fill="#87aeb4"/><path d="m123.067 203.463c1.184 0 2.143-.88 2.143-1.964 0-1.085-.959-1.964-2.143-1.964-1.183 0-2.142.879-2.142 1.964 0 1.084.959 1.964 2.142 1.964z" fill="#004e5a"/><path d="m135.833 175.789c1.183 0 2.142-.88 2.142-1.964 0-1.085-.959-1.964-2.142-1.964s-2.143.879-2.143 1.964c0 1.084.96 1.964 2.143 1.964z" fill="#87aeb4"/><path d="m135.833 187.662c1.183 0 2.142-.879 2.142-1.964s-.959-1.964-2.142-1.964-2.143.879-2.143 1.964.96 1.964 2.143 1.964z" fill="#004e5a"/><path d="m135.833 199.534c1.183 0 2.142-.879 2.142-1.964 0-1.084-.959-1.964-2.142-1.964s-2.143.88-2.143 1.964c0 1.085.96 1.964 2.143 1.964z" fill="#87aeb4"/><path d="m93.9651 178.288c-.0893.089-.2678.089-.3571.089-.5356.09-1.0713-.178-1.3391-.714l-18.6576-36.065c.8035-.447 1.5177-.893 2.1425-1.339l18.6576 36.065c.3571.804.1786 1.607-.4463 1.964z" fill="#8677a7"/><path d="m141.456 144.544-8.838 34.994c-.357-.268-.624-.536-.981-.804-.179-.178-.358-.357-.625-.535-.179-.179-.357-.357-.625-.447l8.748-34.547z" fill="#8677a7"/><path d="m141.458 258.632c0 .089 0 .178.089.267-.803.982-4.017 4.375-9.194 7.856l-21.068 1.786c3.213-13.748 6.07-31.87 5.892-53.206-.179-19.728-2.857-36.69-5.892-49.813 3.928-.267 10.534-.089 17.765 2.768 10.533 4.195 16.247 11.605 17.675 13.658l.089.089c-2.946 8.035-5.891 18.301-7.409 30.442-.625 5.177-.982 10.177-1.071 14.908v3.303c.089 10.98 1.517 20.354 3.035 27.585.089.178.089.267.089.357z" fill="url(#c)" opacity=".42"/><path d="m88.5218 256.757-32.2267 2.143-6.606.446 5.8919-66.685c-7.4095 6.695-41.868 37.137-61.50751 34.012-1.87469-.268-3.66012-.893-5.26699-1.875-6.4275-4.017-6.9631-12.23-16.8722-61.686-.8927-4.374-1.6961-8.48-2.4995-12.23-.2678-1.428-.5356-2.767-.8034-4.106-.982-4.91-1.8748-9.017-2.5889-12.23v-.09c.1785-.178 4.8206-2.142 7.588-3.392.4463-.178.8034-.357 1.0712-.535.1786-.09.3571-.179.4464-.268.0893.089.0893.178.1786.268.0892.178.1785.267.2678.446 2.321 3.392 5.1777 7.945 8.1236 13.569 14.99746 29.013 11.42662 48.474 19.46098 50.706 6.87382 1.874 12.94422-11.427 32.94082-30.442 11.7838-11.158 22.9426-19.103 31.2448-24.46 7.0524 38.744 14.1048 77.577 21.1571 116.409z" fill="#bdd3de"/><path d="m248.137 135.17c-1.339 6.339-3.393 16.426-5.892 28.746-3.839 19.193-6.338 32.226-8.213 41.153-2.946 13.57-4.642 17.765-8.302 20.265-.089.089-.268.178-.357.268-9.731 6.07-26.157-1.786-40.44-11.338-12.051-8.034-22.585-17.408-26.335-20.8 1.964 9.017 3.928 18.033 5.892 27.049-1.607.625-3.303 1.25-4.999 1.964-3.035 1.25-6.16 2.589-9.373 3.928-5.625 2.5-10.981 4.999-16.069 7.588.268-13.926 1.16-29.102 2.946-45.439 1.964-17.586 4.82-33.744 8.034-48.295 8.749 5.535 20.443 13.837 32.941 25.353 19.729 18.211 26.603 30.798 32.941 28.745 8.302-2.768 1.964-26.424 17.229-51.42.714-1.161 1.428-2.321 2.232-3.482 1.607-2.321 3.124-4.285 4.463-5.802.893-1.071 1.697-1.964 2.321-2.589.625.268 1.34.536 1.964.803 2.946 1.161 5.892 2.232 8.838 3.393.089-.179.179-.179.179-.09z" fill="#bdd3de"/><path d="m65.7577 213.728c0 9.552-5.6241 31.602-9.3734 45.171l-6.6061.447 5.8919-66.685c-7.4095 6.695-41.868 37.136-61.5075 34.012 11.2481-12.766 34.0121-34.816 50.5272-39.012 22.764-6.07 21.0679 11.695 21.0679 26.067z" fill="url(#e)" opacity=".36"/><path d="m225.731 225.244c-.089.089-.268.179-.357.268-9.731 6.07-26.156-1.785-40.44-11.337-12.051-8.035-22.585-17.408-26.335-20.8 1.964 9.016 3.928 18.032 5.892 27.049-1.607.624-3.303 1.249-4.999 1.964-4.82-8.124-14.551-26.692-9.373-35.709 5.892-10.177 60.525 27.853 75.612 38.565z" fill="url(#f)" opacity=".36"/></g></svg>