<svg fill="none" height="60" viewBox="0 0 199 200" width="60" xmlns="http://www.w3.org/2000/svg" xmlns:xlink="http://www.w3.org/1999/xlink"><linearGradient id="a" gradientUnits="userSpaceOnUse" x1="74.5944" x2="129.901" y1="153.717" y2="170.321"><stop offset=".00194495" stop-color="#19233d" stop-opacity=".5"/><stop offset=".8362" stop-color="#f07125"/></linearGradient><linearGradient id="b" gradientUnits="userSpaceOnUse" x1="3.76985" x2="212.202" y1="229.801" y2="292.409"><stop offset=".1948" stop-color="#87aeb4"/><stop offset="1" stop-color="#153e5c"/></linearGradient><linearGradient id="c" gradientUnits="userSpaceOnUse" x1="96.9933" x2="167.509" y1="219.296" y2="240.464"><stop offset="0" stop-color="#5a142a" stop-opacity=".2"/><stop offset="1" stop-color="#fc860a" stop-opacity=".2"/></linearGradient><linearGradient id="d"><stop offset=".000555701"/><stop offset=".8106"/></linearGradient><linearGradient id="e" gradientUnits="userSpaceOnUse" x1="65.4659" x2="91.7495" xlink:href="#d" y1="105.688" y2="113.583"/><linearGradient id="f" gradientUnits="userSpaceOnUse" x1="83.6341" x2="87.6076" xlink:href="#d" y1="83.1444" y2="84.3389"/><linearGradient id="g" gradientUnits="userSpaceOnUse" x1="67.1213" x2="71.0949" xlink:href="#d" y1="81.5659" y2="82.7605"/><linearGradient id="h" gradientUnits="userSpaceOnUse" x1="83.1933" x2="97.4375" xlink:href="#d" y1="70.0018" y2="74.2831"/><linearGradient id="i" gradientUnits="userSpaceOnUse" x1="66.4344" x2="73.3331" xlink:href="#d" y1="70.3315" y2="72.4058"/><linearGradient id="j" gradientUnits="userSpaceOnUse" x1="57.4344" x2="138.633" y1="59.0705" y2="83.456"><stop offset="0" stop-color="#002544"/><stop offset=".1924" stop-color="#00172a"/><stop offset=".4174" stop-color="#000a13"/><stop offset=".6287" stop-color="#000305"/><stop offset=".8106"/></linearGradient><linearGradient id="k" gradientUnits="userSpaceOnUse" x1="105.05" x2="113.365" y1="82.6286" y2="85.1284"><stop offset=".00308041" stop-color="#f07125"/><stop offset=".4448" stop-color="#19233d" stop-opacity=".5"/></linearGradient><clipPath id="l"><path d="m.290039 100.312c0-54.8592 44.472261-99.331531 99.331661-99.331531 54.8593 0 99.3313 44.472331 99.3313 99.331531 0 54.86-44.472 99.332-99.3313 99.332-54.8594 0-99.331661-44.472-99.331661-99.332z"/></clipPath><g clip-path="url(#l)"><path d="m.290039 100.312c0-54.8592 44.472261-99.331531 99.331661-99.331531 54.8593 0 99.3313 44.472331 99.3313 99.331531 0 54.86-44.472 99.332-99.3313 99.332-54.8594 0-99.331661-44.472-99.331661-99.332z" fill="#7f87cd"/><path d="m117.06 201.037c-7.088 10.838-16.897 18.841-30.6613 18.756-40.6725-.317-11.0931-77.954-9.8007-81.293.4767-.027 1.0029.025 1.2732.018l.1919.044 50.5169 6.442 2.936.395c.91.139 1.77.199 2.68.337.015-.064-2.759 33.334-17.136 55.301z" fill="#cd907f"/><path d="m117.056 201.035-36.1406 16.241c-4.6486-12.751-9.2973-25.503-13.9459-38.255 3.6047.411 9.1944.666 15.7583-1.011 8.5572-2.167 14.092-6.431 17.2019-8.888 2.1253-1.672 9.3873-7.629 15.5593-18.876 1.36-2.45 2.665-5.249 3.885-8.268 5.807-14.692 5.697-27.897 5.764-32.657.019-1.273.1-1.927.242-1.962s.347.549.555 2.008c.278 1.744.601 4.776.953 9.765.072 1.764.159 3.465.295 5.244.38 6.945.853 13.777 1.341 20.545l-.014.064c.006.27.027.477.033.747.018.811.1 1.637.104 2.512.215-.355 1.753-2.697 4.2-2.817.334.009.796.046 1.308.161.05.079-2.723 33.479-17.099 55.447z" fill="url(#a)" opacity=".08"/><path d="m232.273 286.105c-4.318 1.848-8.635 3.696-12.982 5.673-2.694 1.206-5.387 2.413-8.003 3.57-6.157 2.844-12.235 5.639-18.2 8.527-6.704-9.314-13.764-20.322-20.434-33.057-4.791-9.151-8.729-17.907-11.986-26.106-5.834 27.592-11.653 55.121-17.486 82.713-.029.128-.058.256-.073.32l-100.6375-27.784c-4.453-4.099-8.9844-8.148-13.4374-12.247l3.5326-28.717 3.3714-27.41c-3.5698 7.464-7.2181 14.976-10.9592 22.602-1.4907 3.025-2.9813 6.05-4.472 9.075-.2147.355-.3799.788-.5946 1.143-4.6123 8.505-9.21 16.946-13.88627 25.436-.32206.532-.58018 1.079-.90224 1.612-2.41446-1.218-5.006377-2.544-7.58385-3.933-2.44952-1.36-5.01253-2.813-7.61064-4.409-2.0656-1.273-4.1808-2.625-6.2815-4.041-5.1383-3.448-9.7999-6.921-13.9496-10.279 1.8894-5.087 5.1375-14.101 9.0631-25.518l.0144-.064c.5762-1.954 1.3693-4.868 2.5339-8.235 2.5607-7.759 6.265-17.007 13.51375-30.631 10.24239-19.133 18.29215-33.92 33.21415-46.685 1.1559-.949 2.4976-2.124 4.4379-3.569 11.8336-8.621 24.3764-12.644 34.9478-14.491 2.456-.454 6.4269-.767 7.979-1.088.0639.014.6831-.048 1.3518-.031.4767-.027 1.003.025 1.2734.019l.1919.043c.3322.613.6643 1.226.947 1.761 3.5113 6.777 8.5696 18.61 9.7017 34.128.9551 13.326-1.2326 24.194-3.2709 31.129 4.1093-1.223 27.1289-8.459 37.9329-31.566 5.342-11.433 5.608-22.131 5.182-28.278-.006-.27-.027-.477-.033-.747 1.053.104 2.041.192 3.015.345.91.139 1.771.199 2.681.337 7.168 1.015 13.472 2.574 18.908 4.407 2.743.956 5.343 1.947 7.658 3.008 8.005 3.557 13.732 7.675 17.803 11.083 5.596 4.693 17.635 16.288 42.96 89.581 4.505 13.389 8.15 24.634 10.569 32.374z" fill="#bdd3de"/><g fill="#fff"><path d="m13.4543 173.278-.2806.945-8.21651 27.465-.35287 1.265-7.53966 25.063-.35283 1.265-7.49633 24.87-.3529 1.266-6.7989 22.674c-.4188-.229-.7592-.508-1.0997-.787l6.7123-22.29.3528-1.265 7.49632-24.871.35286-1.265 7.53966-25.062.35283-1.266 7.40353-24.757c.586-.809 1.108-1.632 1.6795-2.377.2146-.355.4148-.646.6005-.873z" opacity=".5"/><path d="m48.8322 144.949-1.8344 6.042-.3528 1.265-8.4537 28.218-.3529 1.266-8.2308 27.529-.3529 1.265-7.5396 25.062-.3529 1.266-7.4034 24.757-.3529 1.265-8.05753 26.761-.35283 1.265-.20839.626c-.36933-.151-.78818-.38-1.20704-.609l.08667-.384.35283-1.265 8.05759-26.762.3528-1.265 7.4034-24.757.3529-1.265 7.5396-25.062.3529-1.266 8.2308-27.529.3529-1.265 8.4537-28.218.3528-1.266 1.4609-4.983c.6623-.253 1.1823-.472 1.7023-.691z" opacity=".5"/><path d="m81.0938 144.429-4.6406 15.495-.3528 1.265-8.4537 28.219-.3529 1.265-8.2453 27.593-.3528 1.265-7.5396 25.063-.3529 1.265-7.3601 24.565-.3528 1.265-6.7844 22.611c-.326-.343-.7305-.636-1.0565-.979l6.5761-21.985.3528-1.265 7.3601-24.565.3528-1.265 7.5397-25.063.3528-1.265 8.2453-27.593.3528-1.265 8.4538-28.219.3528-1.265 5.0863-16.874c.2826.534.5509 1.133.8191 1.732z" opacity=".5"/><path d="m96.1535 201.357-7.7914 25.879-.3528 1.266-7.5397 25.062-.3528 1.265-7.3168 24.373-.3529 1.266-8.1153 27.017-.3528 1.265-2.5112 8.444c-.326-.342-.7304-.635-1.0564-.978l2.3811-7.868.3529-1.266 8.1153-27.017.3529-1.265 7.3168-24.373.3528-1.265 7.5397-25.063.3528-1.265 7.4035-24.757c.5055-.155 1.0399-.438 1.5743-.72z" opacity=".5"/><path d="m144.343 147.542-9.186 30.272-.353 1.266-8.567 28.125-.417 1.251-8.417 27.756-.417 1.251-7.603 25.048-.353 1.265-7.323 24.103-.353 1.265-8.2721 27.116-.4168 1.251-5.6826 18.622c-.4478-.101-.8171-.251-1.2648-.353l5.6826-18.622.3528-1.265 8.2719-27.116.353-1.266 7.338-24.166.352-1.266 7.604-25.048.417-1.25 8.416-27.756.353-1.266 8.568-28.125.352-1.266 9.172-30.208c.561.194 1.009.295 1.393.382z" opacity=".5"/><path d="m87.2064 163.225c.0908.491.1816.982.2724 1.473l-11.4578-3.46-1.2653-.353-28.1893-8.582-1.2653-.353-6.4751-1.999c.5346-.283 1.0053-.58 1.5543-.927l5.2882 1.597 1.2653.353 28.1894 8.582 1.2653.353z" opacity=".5"/><path d="m200.559 199.097-10.513-3.18-1.251-.417-25.417-7.754-1.265-.353-27.372-8.33-1.266-.353-10.704-3.223c.229-.419.38-.788.609-1.207l10.512 3.18 1.266.353 27.372 8.33 1.265.353 25.417 7.754 1.266.353 9.375 2.856c.219.52.501 1.054.706 1.638z" opacity=".5"/><path d="m87.8542 195.516c-.1011.447-.1383.909-.225 1.293l-20.3851-6.215-1.2653-.353-28.1894-8.581-1.2653-.353-23.4131-7.101-.3199-.072c.2002-.291.4004-.582.6007-.873l.0722-.319.128.029 23.2851 7.071 1.2653.353 28.1894 8.582 1.2653.352z" opacity=".5"/><path d="m215.244 235.632-8.814-2.662-1.265-.353-24.6-7.503-1.251-.416-24.856-7.561-1.265-.353-27.373-8.33-1.265-.352-26.1211-7.914c.5347-.282 1.0053-.579 1.5543-.926l24.9198 7.575 1.265.353 27.373 8.33 1.265.352 24.856 7.561 1.265.353 24.536 7.488 1.265.353 7.869 2.381c.283.534.437 1.04.642 1.624z" opacity=".5"/><path d="m159.794 249.209c-.101.448-.188.832-.289 1.28l-13.895-4.28-1.251-.417-27.358-8.394-1.251-.416-27.7266-8.545-1.2653-.353-28.175-8.645-1.2509-.417-28.111-8.632-1.2508-.416-23.39872-7.165-1.25084-.416-6.41111-1.985c.22912-.419.44382-.774.67295-1.193l6.1696 1.863 1.25084.417 23.39868 7.164 1.2508.417 28.111 8.631 1.2509.417 28.175 8.646 1.2653.353 27.7912 8.559 1.251.417 27.357 8.394 1.251.416z" opacity=".5"/><path d="m172.111 159.189-8.316 27.308-.416 1.251-8.568 28.125-.352 1.266-8.431 27.82-.353 1.265-7.604 25.048-.417 1.251-7.279 23.91-.353 1.266-8.301 27.244-.353 1.265-5.503 18.125c-.448-.101-.817-.252-1.265-.353l5.503-18.125.353-1.265 8.301-27.244.353-1.266 7.294-23.974.417-1.251 7.603-25.048.417-1.251 8.431-27.82.353-1.265 8.567-28.126.353-1.265 8.402-27.692c.405.293.745.572 1.164.801z" opacity=".5"/><path d="m193.626 184.824-3.163 9.844-.417 1.25-9.065 27.946-.417 1.251-9.021 27.754-.417 1.251-2.674 8.273c-.268-.599-.551-1.134-.819-1.732l2.243-6.958.417-1.251 9.021-27.754.417-1.251 9.065-27.946.417-1.25 3.565-11.031c.283.535.58 1.005.848 1.604z" opacity=".5"/></g><path d="m211.302 295.353c-6.157 2.845-12.236 5.639-18.201 8.527-6.704-9.313-13.765-20.321-20.435-33.055-4.791-9.15-8.729-17.906-11.986-26.104-5.834 27.59-11.653 55.117-17.487 82.708-.029.128-.057.256-.072.32l-100.6418-27.781c-4.4532-4.099-8.9848-8.148-13.438-12.247l3.5324-28.716 3.3712-27.407c-3.5698 7.463-7.2181 14.975-10.9594 22.6-1.4907 3.025-2.9813 6.05-4.472 9.075-.2147.354-.3799.788-.5946 1.143-4.6124 8.504-9.2103 16.945-13.88657 25.435l-8.48643-2.321-7.9746-2.205s.1096-.782.3637-2.204c2.49166-14.295 17.97307-93.49 53.4915-96.222 39.0768-3.003 24.9536 52.632 105.1156 34.171 47.521-10.911 60.276 34.998 62.76 74.283z" fill="url(#b)" opacity=".17"/><path d="m143.782 319.439c-19.749-6.616-44.0279-17.282-56.6116-32.702-8.3134-10.218-2.3075-32.936 8.9416-58.032 14.144.776 28.288 1.552 42.446 2.265 4.826-27.019 9.717-54.023 14.543-81.042 2.742.956 5.342 1.947 7.657 3.008-2.908 25.368-10.392 91.53-14.491 135.862-.738 9.517-1.62 19.673-2.485 30.641z" fill="url(#c)" opacity=".32"/><path d="m128.595 145.745c-3.1 1.517-7.546 3.335-13.119 4.494-2.613.551-5.452.917-8.44 1.048-10.6641.478-19.3312-2.223-25.0043-4.784-1.2759-2.978-2.5746-5.557-3.7188-7.631-.0495-.079-.0845-.221-.198-.314.6826-3.611 1.4292-7.206 2.1903-10.866 1.4063-6.809 2.8476-13.474 4.3879-19.983.1592-.704.304-1.343.4487-1.983.1919.043.3343.008.5261.052 10.7437.952 21.5371 1.982 32.2801 2.934 2.439.216 4.814.417 7.189.618.27-.006.59.067.861.061.191.043.334.008.526.051.151 3.194.288 6.452.424 9.71.072 1.764.158 3.465.293 5.243.378 6.943.85 13.773 1.336 20.539l-.015.064c.006.27.027.476.033.747z" fill="#cd907f"/><path d="m96.0832 138.46c-3.3385.791-7.3288.896-8.6162.941-3.7199.1-6.8764-.211-9.1437-.59-.0495-.078-.0845-.221-.1979-.314.6825-3.611 1.429-7.207 2.1899-10.867 1.4062-6.809 2.8473-13.476 4.3873-19.985l.9748-1.931c4.1568.94 9.694 1.723 16.1456 1.435 4.609-.167 8.651-.799 11.99-1.59.67 1.496 4.567 10.716.05 19.981-4.803 9.94-15.6586 12.459-17.7798 12.92z" fill="#19233d" opacity=".15"/><path d="m130.117 99.0819c-.545 1.2221-1.139 2.3651-1.798 3.4941-2.555 4.465-5.957 8.807-9.897 12.556-11.285 10.965-26.8664 17.732-38.1859 12.483-17.2702-8.072-15.0995-39.9933-14.3794-50.3206.1117-1.3869.1595-2.7882.2856-4.2391.06-.8606.1345-1.7852.2584-2.6313.3413-3.8903.8889-7.8011 1.9337-11.5323 1.6438-6.0839 4.5379-11.7507 9.968-16.4407 10.6392-9.2956 27.3996-11.7608 39.2636-5.6496 7.888 4.0693 13.153 11.7147 15.809 20.7878-.048 3.4858-.249 7.9457-.69 13.7636-.534 8.0158-1.357 17.3111-2.568 27.7291z" fill="#cd907f"/><path d="m91.0063 107.061c-6.357-8.7646-12.1692-6.851-14.5862-5.38-2.4517-.756-9.1509-1.463-12.6553 9.579-3.5334 11.169 8.8773-3.575 12.5146-8.064 4.5214 2.904 21.7566 13.522 14.7269 3.865z" fill="url(#e)"/><path d="m72.7712 113.362c-.7678-.173-1.4426-.46-1.9895-.718-.1775-.107-.2621-.328-.2187-.52.1073-.177.3282-.262.5201-.219 1.0298.502 2.7283 1.02 4.7428.736 2.904-.353 4.6751-2.238 5.311-2.969.1713-.163.3777-.183.5552-.076.163.171.1836.378.0762.555-.7287.844-2.6568 2.829-5.8456 3.251-1.1393.281-2.1919.177-3.1515-.04z" fill="#000"/><path d="m85.1834 85.77c1.1302.2557 2.2539-.4535 2.5097-1.584.2559-1.1305-.4529-2.2542-1.5832-2.5098-1.1302-.2556-2.2538.4536-2.5097 1.5841s.4529 2.2541 1.5832 2.5097z" fill="url(#f)"/><path d="m68.6619 84.1929c1.1303.2556 2.2539-.4536 2.5098-1.5841.2558-1.1304-.453-2.2541-1.5832-2.5097-1.1303-.2556-2.2539.4536-2.5098 1.584-.2559 1.1305.453 2.2542 1.5832 2.5098z" fill="url(#g)"/><path d="m77.9779 77.4876c-1.4571 1.688-3.5436 4.377-5.8036 7.8337-3.4902 5.3305-5.1785 8.0422-4.2111 10.0093 1.6316 3.1932 9.3241 2.175 9.8152 2.0842.0238-6.652.1116-13.2896.1995-19.9272z" fill="#a2625e"/><path d="m97.7585 72.672-14.3527-3.4425-.5354 2.3665 14.3528 3.4425z" fill="url(#h)"/><path d="m73.4404 71.9582-7.3241 1.168c.0603-.8604.135-1.7848.2593-2.6307l6.6905-1.0423z" fill="url(#i)"/><path d="m130.358 97.1171c-.081.6542-.161 1.3084-.242 1.9625-1.079 9.2374-2.16 16.9944-2.97 22.6614l-.049-.079c-.673-.892-1.494-2.018-2.35-3.288-1.168-1.676-2.391-3.7-3.635-5.932-.615-1.147-1.279-2.373-1.929-3.663-.6-1.212-1.186-2.487-1.758-3.826-.825-2.002-1.586-3.99-2.233-5.8845-1.675-5.0853-2.69-9.8196-3.328-14.1329-.32-2.1566-.604-4.1709-.825-6.1706-1.16-9.743-1.674-16.9867-7.967-21.5693-3.4628-2.5308-10.8958-4.7486-17.9992-3.6645-8.9752 1.3335-11.9625 7.1133-16.3743 5.511-.1279-.0289-.2414-.1218-.3694-.1507-5.6601-2.6241-8.6148-15.7312-3.4069-21.8161 3.0219-3.5531 8.0594-3.8266 12.9751-3.8586 28.7267-.3659 45.0317-.5134 52.6817 10.5619 1.96 2.9308 2.902 5.9007 2.796 13.8108-.049 3.4856-.25 7.9452-.69 13.7627-.015.064-.015.064-.015.064z" fill="url(#j)"/><path d="m123.975 91.7737c-1.643 5.4774-7.459 8.5983-12.936 6.9558-4.213-1.2895-7.016-4.9491-7.362-9.0615-.124-1.2381.038-2.5461.406-3.8748 1.643-5.4774 7.459-8.5986 12.936-6.9557 1.137.3244 2.102.8118 3.024 1.4911 3.54 2.4818 5.265 7.0405 3.932 11.4451z" fill="#cd907f"/><path d="m120.053 80.2641-16.367 9.3391c-.123-1.238.039-2.546.407-3.8746 1.643-5.4773 7.459-8.5985 12.936-6.9556 1.122.3884 2.152.8902 3.024 1.4911z" fill="url(#k)" opacity=".09"/></g></svg>