<svg fill="none" height="60" viewBox="0 0 199 200" width="60" xmlns="http://www.w3.org/2000/svg" xmlns:xlink="http://www.w3.org/1999/xlink"><linearGradient id="a"><stop offset=".3245" stop-color="#2a303d"/><stop offset="1" stop-color="#31445a"/></linearGradient><linearGradient id="b" gradientUnits="userSpaceOnUse" x1="103.955" x2="202.802" xlink:href="#a" y1="117.792" y2="117.792"/><linearGradient id="c" gradientUnits="userSpaceOnUse" x1="-14.9158" x2="111.218" xlink:href="#a" y1="138.573" y2="138.573"/><linearGradient id="d" gradientUnits="userSpaceOnUse" x1="142.374" x2="178.131" y1="164.082" y2="164.082"><stop offset="0" stop-color="#fff"/><stop offset="1" stop-color="#9375a1"/></linearGradient><linearGradient id="e" gradientUnits="userSpaceOnUse" x1="113.559" x2="130.368" y1="89.7925" y2="89.7925"><stop offset="0" stop-color="#e2c8c0"/><stop offset="1" stop-color="#dd8093" stop-opacity=".4"/></linearGradient><linearGradient id="f" gradientUnits="userSpaceOnUse" x1="-4.36611" x2="47.0869" y1="217.457" y2="217.457"><stop offset="0" stop-color="#302e40"/><stop offset="1" stop-color="#9375a1"/></linearGradient><clipPath id="g"><path d="m.00097656 100.312c0-54.8592 44.47232344-99.331531 99.33172344-99.331531 54.8593 0 99.3313 44.472331 99.3313 99.331531 0 54.86-44.472 99.332-99.3313 99.332-54.8594 0-99.33172344-44.472-99.33172344-99.332z"/></clipPath><g clip-path="url(#g)"><path d="m.00097656 100.312c0-54.8592 44.47232344-99.331531 99.33172344-99.331531 54.8593 0 99.3313 44.472331 99.3313 99.331531 0 54.86-44.472 99.332-99.3313 99.332-54.8594 0-99.33172344-44.472-99.33172344-99.332z" fill="#a28676"/><path d="m106.436 39.1c-.91 3.2887-8.397 32.1877 7.837 47.7917 1.959 1.8893 4.548 3.7785 7.837 5.3879-2.099 2.2391-4.898 5.8778-6.298 10.9854-1.399 5.038-.28 7.767-.63 15.464-.419 10.776-2.589 9.447-1.889 15.185 1.19 10.216 7.067 16.863 11.406 21.621 1.119 1.26 1.959 2.1 2.169 2.31 14.624 14.694 20.992 39.254 34.357 44.083 13.015 4.758 35.686-8.257 40.514-27.15 2.169-8.397 1.26-19.872-5.178-27.989-7.907-9.936-18.823-8.397-20.642-15.744-2.099-8.607 12.106-14.625 9.657-23.021-1.96-6.508-10.566-5.108-19.593-16.4441-3.219-4.0585-6.368-7.977-6.298-13.2949.07-6.2277 4.549-8.5368 4.689-15.674.14-4.6882-1.75-8.1869-3.149-10.9858-6.788-13.5748-22.112-17.4933-24.281-17.9831-15.604-3.7086-28.129 3.9185-30.508 5.4579z" fill="url(#b)"/><path d="m84.4646 104.315c12.7351-7.9767-9.1665-57.0279-9.1665-57.0279-26.17 12.3853-31.9778 21.1319-31.348 27.1496.5598 5.8778 7.0673 7.2073 8.1169 14.8343 1.4694 10.7059-10.1461 14.624-10.286 26.38-.07 11.685 11.5455 16.933 9.1664 22.181-2.659 5.878-17.0035-.839-32.3976 4.339-18.6128342 6.227-34.9866 28.409-33.2372 50.73.1399 1.68 2.0991 23.371 16.86349 30.789 13.50481 6.787 20.50211-7.068 39.74481-.98 9.4463 2.939 19.8024 10.076 32.1876 6.018 0 0 .14-.07.2799-.14 25.5403-8.467 36.1066-38.765 36.8056-59.827.91-28.549-16.1635-48.562-21.0616-53.88-1.6094-3.498-3.5686-7.137-5.6678-10.566z" fill="url(#c)"/><path d="m159.686 177.647c-.49 2.798-1.12 5.178-1.47 6.787 0 .07-.07.21-.07.28-.14.7-.349 1.469-.559 2.239-1.82 7.207-8.887 31.418-37.856 123.083-14.834-.7-29.5986-1.4-44.4329-2.169-6.3675-.42-12.6651-.84-19.0327-1.26.6298-12.665-1.6094-20.572-3.9185-25.54 0 0-3.6386-11.826-7.3472-24.491 0-.07 0-.07 0-.14-3.4287-11.895-6.9973-24.49-7.6271-29.108-.0699-.35-.0699-.63-.1399-.84-.1399-1.4-.1399-2.729-.1399-3.919 0-.14 0-.28 0-.419 0-.21 0-.42 0-.63 0-.28 0-.49.0699-.77 0-.21.07-.49.07-.7s.07-.489.07-.699.0699-.49.0699-.7c.2799-1.679.6998-3.149 1.1896-4.548.07-.21.14-.49.2799-.7.4198-1.12.9096-2.309 1.4694-3.429.07-.14.14-.28.14-.42.4198-1.049.9096-2.099 1.3994-3.288.07-.14.14-.28.14-.42.4198-1.05.7697-2.169 1.1895-3.359.07-.21.14-.42.14-.56.1399-.35.2099-.769.2799-1.119.0699-.21.07-.42.1399-.56 0-.07.07-.21.07-.28.07-.14.07-.35.1399-.49.4898-2.169.9797-4.618 1.2595-7.487 1.8193-13.015.07-18.963.4899-23.021 0-.14 0-.21 0-.35 0-.21.0699-.42.0699-.63 0-.14.07-.28.14-.49 0-.07.07-.209.07-.279.07-.14.0699-.28.1399-.42 0-.07.07-.21.1399-.28.07-.21.21-.42.28-.56.2798-.49.5597-.91.9796-1.399 2.0292-2.24 5.7378-3.919 12.8051-6.718.9096-.35 1.8193-.77 2.8689-1.119 0 0 .7697-.28 3.1488-1.19.6297-.21 1.2595-.49 1.8892-.77 6.2277-2.589 12.3153-6.227 15.9539-9.166.2099-.14.4199-.35.6298-.49.4198-.35.7697-.63 1.0496-.91 2.0992-1.959 3.7085-4.408 4.8281-6.997 3.8485-8.747 3.1488-19.802 2.589-24.84l24.4908-8.607v2.309c.07 19.872 3.429 31.068 7.977 37.296.14.21.35.42.49.629 1.819 2.31 3.778 3.849 5.877 4.899.42.21.77.349 1.19.559 7.907 3.289 16.234-.28 22.321 5.738 5.808 5.388 5.318 15.184 4.059 22.462z" fill="#e2c8c0"/><path d="m108.536 98.6468c4.478 1.4692 5.388 12.3152 2.799 20.1522-4.269 12.805-18.0532 17.493-20.3623 18.263 3.8485-8.747 3.1488-19.802 2.589-24.84 4.8281-9.237 11.1953-14.8347 14.9743-13.5752z" fill="#253041" opacity=".06"/><path d="m82.9256 201.508c.4898-3.989 1.1196-13.505-3.7786-24.001-5.6678-12.106-15.1841-17.913-18.6128-19.803.4898-.21.9096-.35 1.3994-.559.4899-.21.9797-.35 1.4695-.56 0 0 .7697-.28 3.1488-1.19.6297-.21 1.2595-.49 1.8892-.77 6.5775 3.429 10.0062 7.418 11.8955 10.426 5.318 8.327 7.2072 16.094 7.2072 16.094.5598 2.379 1.0496 5.248 3.4987 7.138 2.589 1.959 4.8281.909 5.8077 2.449 1.6794 2.799-2.8689 11.125-9.0965 11.755-2.0292.21-3.7785-.49-4.8281-.979z" fill="#253041" opacity=".06"/><path d="m161.296 154.976c-.49 7.557-1.049 15.114-1.539 22.601v.07c-.14.63-.28 1.19-.35 1.819-.35 1.68-.77 3.359-1.12 4.968 0 .07-.07.21-.07.28-.28 1.26-.489 2.169-.559 2.239-.14.63 0 2.31 1.329 6.438-1.469 8.187-3.149 16.514-4.968 25.05-1.749 8.467-3.709 17.074-5.808 25.82-1.539 6.438-3.149 13.015-4.898 19.593-1.189 4.478-2.379 8.957-3.569 13.295-.979 3.499-1.959 6.927-2.938 10.356-2.24 7.697-4.479 15.184-6.788 22.531-13.575-.28-24.63-.699-32.3974-1.049-5.3879-.21-11.1257-.56-22.1815-1.12-3.1488-.14-6.2976-.35-9.3764-.49-3.2188-.14-6.4375-.35-9.5863-.49 0-.07 0-.209 0-.279 0-.28 0-.63 0-.98-.07-2.869-.7698-7.347-1.9593-12.735s-2.7289-11.756-4.4783-18.333c-1.5394-5.948-3.2187-12.106-4.8281-17.983 0-.07 0-.07 0-.14-3.6386-13.295-6.9973-24.981-7.6271-29.109-.07-.35-.07-.63-.1399-.84-.14-1.399-.14-2.729-.14-3.918 0-.14 0-.28 0-.42 0-.21 0-.42 0-.63 0-.28 0-.49.07-.77 0-.209.07-.489.07-.699s.0699-.49.0699-.7.07-.49.07-.7c.2799-1.679.6997-3.149 1.1895-4.548.07-.21.14-.49.2799-.7.4199-1.119.9097-2.309 1.4695-3.428.0699-.14.1399-.28.1399-.42.4199-1.05.9097-2.099 1.3995-3.289.07-.14.1399-.28.1399-.42.4199-1.049.7697-2.169 1.1896-3.359.07-.209.1399-.419.1399-.559.14-.35.2099-.77.2799-1.12.07-.21.07-.42.14-.56 0-.07.0699-.21.0699-.28.07-.14.07-.349.14-.489.4898-2.17.8396-4.339 1.2595-7.488 1.8193-13.015.07-18.962.4898-23.021 0-.14 0-.21 0-.35 0-.209.07-.419.07-.629 0-.14.0699-.28.1399-.49 0-.07.07-.21.07-.28.07-.14.07-.28.14-.42 0-.07.0699-.14.0699-.28.07-.21.21-.42.2799-.56.3499-.559.6997-.979.9796-1.399 1.1196-1.539 4.4083-6.018 10.1461-8.117.4899-.21 1.0496-.35 1.6094-.49 1.4695-.35 3.9185-.839 7.0673-.42 5.9478 4.479 13.7848 11.896 17.9832 23.092 2.7989 7.417 2.519 12.385 5.4579 13.295 4.968 1.469 10.8454-10.776 25.0504-25.821 7.207-7.627 13.855-13.155 18.403-16.653 1.679-.56 4.898-1.4 9.026-1.4 2.1 0 4.479.21 6.998.91 2.169.56 4.198 1.469 4.408 1.539.07.07.14.07.28.14s.21.14.35.14c.07 0 .14.07.21.07 3.009 1.19 5.178 2.869 6.647 4.129z" fill="#8376a2"/><path d="m199.223 263.924c-.14 9.236-2.589 16.024-8.186 20.292-13.715 10.356-37.996.28-51.361-7.067-2.729-1.469-4.968-2.869-6.577-3.919-3.359-2.169-5.808-4.198-7.557-6.297-1.96-2.309-3.009-4.548-3.429-6.997-.35-2.1-.14-4.339.42-6.438 1.329-5.248 5.108-9.936 9.796-11.546 3.429-1.189 6.787-.279 13.295 1.54.91.28 1.749.49 2.519.77 9.306 3.008 12.665 6.227 14.694 4.688 2.589-1.959-.07-9.167-3.148-17.983-1.89-5.458-3.919-9.517-5.738-12.526-3.009-4.968-5.668-6.997-6.788-7.837-2.939-2.099-4.058-2.029-5.458-3.148-4.128-3.289-5.248-12.875 4.339-38.206 2.099-5.528 4.688-11.825 7.837-18.962.07.07.14.07.28.14s.21.139.35.139c.069 0 .139.07.209.07 1.26.63 3.079 1.54 4.969 2.799 10.635 6.998 15.674 17.844 18.402 25.541.42 1.259.84 2.379 1.12 3.428 11.336 35.267 20.222 63.116 20.012 81.519z" fill="#8376a2"/><path d="m178.16 178.976c-7.837 1.75-13.995 1.75-18.823.49-6.577-1.609-10.776-5.528-13.295-10.216-3.568-6.647-3.918-15.044-3.568-21.412 2.099 0 4.478.21 6.997.91 2.169.56 4.198 1.469 4.408 1.539.07.07.14.07.28.14s.21.14.35.14c.07 0 .14.07.21.07 1.259.63 3.079 1.54 4.968 2.799 10.706 6.998 15.744 17.843 18.473 25.54z" fill="url(#d)" opacity=".21"/><path d="m126.449 143.78c-9.586 8.607-18.123 12.945-25.47 12.945-1.5397 0-3.0092-.21-4.4786-.56-6.2276-1.679-10.0062-6.787-12.1054-10.706.2099-.139.4199-.349.6298-.489 1.9592 3.778 5.6678 8.816 11.6855 10.426 7.9767 2.169 17.7737-1.96 29.2487-12.246.14.21.35.42.49.63z" fill="#31445a"/><path d="m99.2295 159.734c1.6615 0 3.0085-1.348 3.0085-3.009 0-1.662-1.347-3.009-3.0085-3.009-1.6617 0-3.0088 1.347-3.0088 3.009 0 1.661 1.3471 3.009 3.0088 3.009z" fill="#df8744"/><path d="m126.799 90.0406c-.77 1.3995-1.82 3.2888-3.149 5.4579-7.627 12.2455-26.73 35.8265-42.2641 31.3485-6.9273-2.03-10.9858-9.027-12.5252-11.756-1.4694-2.519-3.6386-7.207-3.9185-18.8228-.2099-7.9769-.4198-18.123 3.9185-30.5083.3499-.9796 1.9593-5.4579 4.4783-10.8458 2.1692-4.4783 5.0381-9.5863 8.4668-13.7148 3.9185-4.6882 8.5367-8.1169 13.6447-7.9769 6.2275.2099 10.7055 5.5979 13.6445 9.1665.07.1399.49.6297 1.05 1.3295 1.679 2.3791 4.968 7.4871 6.018 13.2949.489 2.7989.489 5.7378-.42 8.6767-.84 2.6589-2.519 5.5978-3.149 10.9858-.28 2.589-.28 4.7581.77 7.0672.14.3499 1.119 2.3092 3.148 3.9186 4.199 3.2187 9.237 2.519 10.287 2.379z" fill="#e2c8c0"/><path d="m116.303 57.0836c-5.108-1.4694-15.394-4.1284-21.8319-3.5686-6.2976.5598-15.8839 1.1196-21.0619 1.3995 2.1691-4.4783 5.0381-9.5864 8.4668-13.7148l28.409 2.589c1.679 2.3791 4.968 7.4872 6.018 13.2949z" fill="#253041" opacity=".06"/><path d="m96.7818 87.3809c1.2752 0 2.3091-1.0338 2.3091-2.3091s-1.0339-2.3091-2.3091-2.3091c-1.2753 0-2.3091 1.0338-2.3091 2.3091s1.0338 2.3091 2.3091 2.3091z" fill="#000105"/><path d="m74.5303 85.4923c1.2753 0 2.3091-1.0339 2.3091-2.3092s-1.0338-2.3091-2.3091-2.3091-2.3091 1.0338-2.3091 2.3091 1.0338 2.3092 2.3091 2.3092z" fill="#000105"/><path d="m83.9753 113.481c-3.1488 0-5.5979-1.259-6.5775-1.819-.2099-.14-.2799-.42-.1399-.63.1399-.21.4198-.28.6297-.14 1.1196.7 4.1285 2.169 7.977 1.54 4.4083-.7 6.9273-3.849 7.5571-4.759.1399-.21.4198-.21.6297-.07.21.14.21.42.07.63-.6997.98-3.4287 4.338-8.1868 5.108-.6998.07-1.3295.14-1.9593.14z" fill="#000105"/><path d="m84.0438 78.355c-.9797 1.3994-2.3092 3.4287-3.7086 5.9477-3.5686 6.3676-5.388 9.6563-4.1284 11.7555 1.6093 2.7989 7.697 2.0992 9.0965 1.8893-.4898-6.5075-.8397-13.085-1.2595-19.5925z" fill="#c0846f"/><path d="m131.698 85.0722c-4.758-21.4818-13.015-29.5287-20.153-32.6775-15.6736-6.9973-32.5371 6.5075-42.7532-2.8689-4.8282-4.4783-6.2276-12.2453-4.2684-17.6332 3.7786-10.566 20.6421-13.7148 31.8378-12.2453 19.7328 2.589 35.9658 21.6917 38.5548 41.634 1.33 10.2161-1.259 18.7528-3.218 23.7909z" fill="#2a303d"/><path d="m103.288 74.6462-13.5753-3.5686c-.2799-.07-.4898-.3499-.4198-.6998l.3498-1.1895c.07-.2799.3499-.4898.6998-.4199l13.5745 3.5687c.28.0699.49.3498.42.6997l-.35 1.1896c-.14.3498-.42.4898-.699.4198z" fill="#2a303d"/><path d="m75.5087 71.5677-12.735 2.449c-.2799.07-.5598-.1399-.6298-.4198l-.2099-1.1896c-.07-.2799.1399-.5598.4198-.6297l12.7351-2.4491c.2799-.07.5598.14.6298.4198l.2099 1.1896c.07.2799-.14.5598-.4199.6298z" fill="#2a303d"/><path d="m133.098 95.4286c-.14 5.3874-4.688 9.6564-10.076 9.4464-5.388-.14-9.657-4.688-9.447-10.0762 0-.2099 0-.3499 0-.5598.42-5.178 4.828-9.0965 10.076-8.9566 2.659.07 5.038 1.2596 6.788 3.0089 1.679 1.8893 2.729 4.4083 2.659 7.1373z" fill="#e2c8c0"/><path d="m130.37 88.3611-16.793 5.9477c.419-5.178 4.828-9.0965 10.076-8.9565 2.589.0699 4.968 1.1895 6.717 3.0088z" fill="url(#e)" opacity=".28"/><path d="m2.31562 143.15c0 .49-.20991.98-.55978 1.33-.34987.349-.839696.559-1.329508.559h-35.756332c-1.0496 0-1.8892-.839-1.8892-1.889 0-.49.2099-.98.5597-1.329.3499-.35.8397-.56 1.3295-.56h35.756332c1.049598.07 1.889288.909 1.889288 1.889z" fill="#bacfda"/><path d="m2.31493 143.15c0 .49-.20991.979-.55978 1.329s-.839695.56-1.329507.56h-1.889263c-1.74933 16.654-3.49866 33.237-5.17801 49.891h-12.66517c-8.3968-9.097-9.0265-12.735-8.0469-14.344 1.5394-2.52 7.2072-.7 14.5544-4.619.9097-.49 3.77857-2.169 5.31798-5.388.20992-.419.90966-2.029.48982-2.309-.69973-.56-3.6386 3.919-8.4668 6.368-6.2276 3.149-13.2249 1.679-13.2949.979-.0699-.559 5.1081-.559 12.2453-3.708 6.0177-2.659 10.56598-6.368 10.28609-6.858-.27989-.489-4.19839 1.82-11.61549 3.989-5.318 1.539-12.3153 3.009-12.6652 2.099-.2099-.7 3.4287-2.519 3.9185-2.799 4.8282-2.449 12.0354-4.268 14.4844-4.828.9097-.21 2.729-.7 3.14884-1.959.20992-.63.06997-1.47-.41984-1.959-1.2595-1.26-4.2684.419-9.0265 2.029-4.8982 1.679-10.566 2.869-10.8459 2.239-.2099-.56 3.2888-2.519 5.318-3.639 7.907-4.338 10.7059-4.128 11.3356-6.507.6298-2.449-1.6094-6.158-1.3295-8.677 0-.07.07-.77.21-1.749.0699-.7.1399-1.33.2099-1.959h13.924643c1.049597 0 1.889287.839 1.889287 1.819z" fill="#2a303d" opacity=".09"/><path d="m64.9422 208.995c-1.3994 7.067-3.7086 16.583-7.837 27.429s-25.1203 65.915-54.01928 65.775c-12.80509-.07-22.25142-10.986-35.82622-27.569-.5598-.7-1.1896-1.47-1.8193-2.17-1.8893-2.309-17.7032-22.181-23.511-51.64-.4898-2.309-.7697-4.478-1.0496-6.367-1.6094-12.595 1.1895-16.724 3.3587-18.683 3.6386-3.219 9.5163-3.989 14.0646-2.379 8.3268 2.939 10.1461 13.085 14.9043 24.28 4.6182 10.846 13.6448 26.59 22.25147 33.797 3.1488 2.659 6.29756 4.129 9.02652 3.779 10.49601-1.259 18.12301-28.479 26.58981-58.707.9796-3.499 3.8486-14.205 11.7555-25.821 1.5394-2.239 2.9389-4.128 4.0585-5.457.2099-.28.4898-.56.6997-.84 5.8777 14.834 11.6155 29.738 17.3533 44.573z" fill="#8376a2"/><path d="m47.0992 165.191c-.0699 17.564-1.9592 85.368-27.2195 100.272-19.9424069 11.756-23.79092-3.359-24.21075-14.065 3.14879 2.659 6.2976 4.129 9.02655 3.779 10.496-1.26 18.1231-28.479 26.5898-58.708.9796-3.498 3.8485-14.204 11.7555-25.82 1.5394-2.239 2.9389-4.128 4.0584-5.458z" fill="url(#f)" opacity=".4"/><g fill="#bacfda"><path d="m63.0552 177.367h-.07l-10.286-.909c-.6298-.07-1.0497-.56-.9797-1.19s.5598-1.05 1.1896-.98l10.286.91c.6298.07 1.0496.56.9797 1.19-.07.559-.5598.979-1.1196.979z"/><path d="m172.141 170.44c-.21 0-.42-.07-.63-.21l-8.327-6.088c-.49-.349-.63-1.049-.21-1.539.35-.49 1.05-.63 1.54-.21l8.326 6.088c.49.35.63 1.049.21 1.539-.28.28-.629.42-.909.42z"/><path d="m85.2344 199.338c-.4198 0-.7697-.21-.9796-.63-.2799-.559-.07-1.189.4898-1.469l9.1665-4.758c.5598-.28 1.1895-.07 1.4694.49.2799.559.07 1.189-.4898 1.469l-9.1665 4.758c-.1399.14-.2799.14-.4898.14z"/><path d="m182.146 191.502-5.667 2.938c-.14.07-.35.14-.49.14-.42 0-.77-.21-.98-.559-.28-.56-.07-1.19.49-1.47l6.018-3.149c.21.63.42 1.4.629 2.1z"/><path d="m118.123 165.051c-.42 0-.77-.209-.98-.559-.28-.56-.07-1.19.49-1.47l9.166-4.758c.56-.28 1.19-.07 1.47.49s.07 1.189-.49 1.469l-9.167 4.758c-.14 0-.349.07-.489.07z"/><path d="m152.27 177.787h-.07l-10.286-.77c-.63-.07-1.05-.56-1.05-1.19.07-.629.56-1.049 1.19-1.049l10.286.77c.63.07 1.049.559 1.049 1.189-.069.63-.559 1.05-1.119 1.05z"/><path d="m148.21 148.398c-.14.49-.559.84-1.049.84h-.07l-10.286-.77c-.07 0-.14 0-.28-.07 2.799-.56 6.927-.979 11.685 0z"/><path d="m119.872 186.533c-.21 0-.35-.07-.56-.14l-8.956-5.178c-.56-.279-.7-.979-.42-1.539s.979-.7 1.539-.42l8.957 5.178c.56.28.7.98.42 1.54-.21.349-.63.559-.98.559z"/></g></g></svg>