<svg fill="none" height="60" viewBox="0 0 200 200" width="60" xmlns="http://www.w3.org/2000/svg" xmlns:xlink="http://www.w3.org/1999/xlink"><linearGradient id="a" gradientUnits="userSpaceOnUse" x1="-16.3987" x2="155.287" y1="257.402" y2="257.402"><stop offset=".00238381" stop-color="#ff931e"/><stop offset=".6622" stop-color="#0d2a28"/></linearGradient><linearGradient id="b"><stop offset=".00238381" stop-color="#ff931e"/><stop offset="1" stop-color="#fff"/></linearGradient><linearGradient id="c" gradientUnits="userSpaceOnUse" x1="140.628" x2="182.915" xlink:href="#b" y1="155.631" y2="155.631"/><linearGradient id="d" gradientUnits="userSpaceOnUse" x1="-3.20662" x2="71.8758" xlink:href="#b" y1="167.591" y2="167.591"/><linearGradient id="e" gradientUnits="userSpaceOnUse" x1="110.806" x2="122.488" y1="73.1691" y2="73.1691"><stop offset=".1269" stop-color="#cd907f"/><stop offset=".8455" stop-color="#691b26"/></linearGradient><clipPath id="f"><path d="m.446777 99.9157c0-54.8594 44.472323-99.331716 99.331723-99.331716 54.8595 0 99.3315 44.472316 99.3315 99.331716 0 54.8593-44.472 99.3313-99.3315 99.3313-54.8594 0-99.331723-44.472-99.331723-99.3313z"/></clipPath><g clip-path="url(#f)"><path d="m.446777 99.9157c0-54.8594 44.472323-99.331716 99.331723-99.331716 54.8595 0 99.3315 44.472316 99.3315 99.331716 0 54.8593-44.472 99.3313-99.3315 99.3313-54.8594 0-99.331723-44.472-99.331723-99.3313z" fill="#accdff"/><path d="m158.639 277.932c-1.104.828-2.209 1.656-3.313 2.393-2.117 1.472-4.142 3.037-6.259 4.51-2.577 9.572-5.246 19.144-7.823 28.716-1.841 6.719-3.682 13.346-5.523 20.065h-65.164l-5.0622-13.07-45.2836-.736c.2761-.736.4601-1.565.7363-2.301 3.0373-10.309 6.3507-23.378 9.4801-36.448.184-.92.4602-1.841.6442-2.761 1.8408-7.824 3.5896-15.647 5.2463-22.918 2.8533-12.794 5.2463-23.746 6.6269-29.729 4.0498-17.211-3.7736 2.393-21.8134 22.642-6.0747 6.811-18.31598 20.341-28.07221 18.684-.46019-.092-1.01247-.184-1.47267-.368-.9204-.368-1.84082-.829-2.57712-1.381-1.6567-1.196-2.8532-2.761-3.6816-4.234-.7363-1.288-1.2885-2.393-1.5647-3.129 0 0-.3681-.92-.6442-1.933-4.694-15.739 9.38802-40.773 9.38802-40.773 1.56468-2.854 3.03734-5.431 4.50998-7.916 10.4005-18.408 16.7513-28.9 26.8756-40.774 13.6219-15.922 28.6244-33.502 48.2289-42.338 3.4975-1.565 7.1791-2.853 10.9528-3.865.8283-.185 1.7487-.461 2.5771-.645 9.6642-2.025 18.6845-1.841 23.7465-1.564 2.577.184 4.142.368 4.142.368 1.656.276 3.129.552 4.51.828 5.614 1.197 9.756 2.761 11.873 3.59 1.84.736 3.681 1.472 5.43 2.301 1.841.92 3.682 1.84 5.43 2.853 14.819 8.375 25.127 19.88 30.189 27.06 5.799 8.191 9.849 17.671 12.058 27.98 6.166 29.176-1.841 64.52-24.391 94.893z" fill="#336859"/><path d="m114.183 272.685c31.754-33.134 41.418-67.281 29.637-81.823-7.455-9.204-25.035-12.61-37.46-6.995-12.7017 5.798-16.5674 19.512-21.8137 31.385-4.51 10.217-11.3209 22.182-22.3657 34.792 0-.369-2.9453-57.433-12.4254-58.354-8.6517-.828-55.50001 57.709-64.612 69.306-1.0124 1.289-1.5646 1.933-1.5646 1.933l5.2462 2.301 4.04982 1.749c9.75622 1.657 21.99748-11.781 28.07218-18.684 17.9477-20.249 25.8632-39.853 21.8134-22.642-2.2089 9.296-6.7189 30.833-11.7811 52.555-3.3134 14.082-6.8109 28.256-10.1243 39.301-2.0249 6.811-4.0498 12.517-5.7986 16.107h120.6638c4.418-16.291 8.928-32.49 13.346-48.781 4.234-1.657 6.351-3.13 6.259-4.51-.276-3.406-13.99-5.891-41.142-7.64z" fill="url(#a)" opacity=".17"/><path d="m182.936 183.131c-3.497-1.105-7.455-2.761-11.965-5.154-19.328-10.309-27.152-34.239-30.281-49.978 14.818 8.376 25.127 19.881 30.189 27.06 5.799 8.283 9.848 17.763 12.057 28.072z" fill="url(#c)" opacity=".05"/><path d="m71.8438 124.133c-10.4006 18.224-43.903 75.381-57.8011 84.125-7.54723 4.786-13.253689 2.669-17.30344-1.013 10.4005-18.408 16.75124-28.9 26.87564-40.773 13.6219-15.923 28.6244-33.503 48.2289-42.339z" fill="url(#d)" opacity=".05"/><path d="m135.168 125.238c-6.534 15.186-19.512 24.298-31.477 22.918-2.209-.277-12.0574-1.749-17.0276-10.677-4.5099-8.1-1.7487-16.383-1.2885-17.856 9.6641-2.025 18.6841-1.841 23.7461-1.564l8.744 1.196c5.614 1.197 9.756 2.761 11.873 3.59 1.841.828 3.682 1.564 5.43 2.393z" fill="#0d2a28" opacity=".36"/><path d="m125.505 121.188c-.369 10.216-8.468 18.04-17.396 18.316-10.0322.276-19.2363-9.112-18.3159-20.709 0-.092 0-.184 0-.276.1841-1.197.4603-3.037.8284-5.246 1.2886-7.916 2.0249-11.874 2.5771-13.07.4602-.9205 1.0125-1.6568 1.6567-2.3931 2.209-2.301 5.7067-3.8657 11.4127-6.3508 2.301-1.0124 5.339-2.1169 8.928-3.2214 2.577-.7363 5.431-1.4726 8.56-2.0248 0 2.0249.092 4.0497.184 6.0746.092 2.301.184 4.602.276 6.903v.2761c.092 2.8534.276 5.7064.46 8.5594.276 4.51.552 8.836.829 13.162z" fill="#df7d56"/><path d="m123.941 92.3798c-.092 0-.092 0-.184 0-.092.9204-2.946 19.2362-18.316 25.2192-6.4431 2.485-12.5177 1.748-15.6471 1.104 0-.092 0-.184 0-.276.1841-1.196.4603-3.037.8284-5.246 1.2886-7.916 2.0249-11.873 2.5771-13.07.4602-.9202 1.0125-1.6566 1.6567-2.3929l20.3409-9.5721c2.577-.7363 5.43-1.4727 8.56-2.0249.092 2.209.184 4.2338.184 6.2587z" fill="#002544" opacity=".13"/><path d="m129.37 67.6206c-.092 1.0124-.184 2.0249-.276 3.0373-.461 3.0373-1.289 5.1542-1.933 7.7313-.829.5523-1.933 1.1966-3.866 2.8533-2.577 2.301-4.326 4.602-5.522 6.8109-3.59 6.2587-3.59 11.9656-8.652 17.2116-6.351 6.535-20.0648 9.756-28.4404 4.418-6.811-4.234-7.1791-15.9231-8.0075-39.1172 0 0-.5522-16.4751 6.1667-28.6244.5522-1.0124 1.2885-1.8407 1.5646-2.2089l.0921-.092.092-.0921c.1841-.1841.3682-.3682.4602-.5522.2761-.2762.5523-.5523.8284-.8284.1841-.1841.3681-.3682.5522-.5522.1841-.1841.4602-.3682.6443-.5523.092-.092.2761-.1841.3682-.2761.1841-.1841.3681-.2761.6442-.4602 7.3632-4.8781 17.856-5.1542 25.587-2.393.46.184.828.2761 1.289.4602.46.184.828.3681 1.196.5522s.829.3682 1.197.6443c.368.1841.644.3682 1.012.5522h.092c.092.0921.368.1841.644.3682.277.1841.553.3682.829.5522.276.1841.46.3682.736.5523 1.565 1.1965 3.037 2.5771 4.234 4.1418.184.184.368.4602.552.6442 5.431 7.3632 7.547 17.0274 7.916 25.219z" fill="#df7d56"/><path d="m129.371 67.6208c-.092 1.0124-.184 2.0249-.276 3.0373-.461 3.0373-1.289 5.1542-1.933 7.7314-.46 1.9328-.829 4.0497-.829 7.087 0 4.0498.553 7.3632 1.013 9.4801-1.657.3682-4.418.6443-6.075-.8283-.46-.4602-.828-1.1966-1.749-2.5772 0 0-1.012-1.7487-1.748-3.4054-2.025-4.7861-2.209-15.7388-3.314-15.9229-.368 0-.828.8283-1.749 4.602-.828 0-1.748.092-2.669 0-2.025-.0921-3.865-.4602-5.338-.9204.092-4.2339.092-8.6518 0-13.3458-.184-5.1542-.46-10.0323-.92-14.7264-8.284-2.0249-16.6596-3.9577-24.9432-5.9826.4602-.8283 1.0124-1.5646 1.5647-2.2089l.092-.0921.092-.092c.1841-.1841.3682-.3681.4602-.5522.2762-.2761.5523-.5523.8284-.8284.1841-.1841.3682-.3681.5522-.5522.1841-.1841.4603-.3682.6443-.5523.0921-.092.2762-.1841.3682-.2761.1841-.1841.3681-.2761.6442-.4602 7.3632-4.8781 17.856-5.1542 25.587-2.393.46.1841.829.2761 1.289.4602s.828.3681 1.196.5522.829.3682 1.197.6443c.368.1841.644.3682 1.012.5522h.092c.092.0921.368.1841.644.3682.277.1841.553.3682.829.5522.276.1841.46.3682.736.5523 1.565 1.1965 2.945 2.5771 4.234 4.1418.184.184.368.4602.552.6442 5.247 6.9951 8.376 16.4752 7.916 25.311z" fill="#302c34"/><path d="m83.1391 72.4566c.4578-.9644.0843-2.0996-.8341-2.5355-.9185-.4359-2.0341-.0075-2.4918.9568-.4578.9644-.0843 2.0995.8342 2.5355.9184.4359 2.034.0075 2.4917-.9568z" fill="#302c34"/><path d="m125.045 76.1803c0 4.7861-3.221 8.6518-7.087 8.6518-3.221 0-5.891-2.4851-6.811-5.9826-.184-.8284-.368-1.6568-.368-2.5772 0-4.786 3.221-8.6517 7.087-8.6517 1.749 0 3.313.7363 4.602 2.0249 1.565 1.4726 2.577 3.8657 2.577 6.5348z" fill="#df7d56"/><path d="m122.468 69.5537c-4.141 3.4975-9.112 7.5473-11.321 9.204-.184-.8284-.368-1.6567-.368-2.5771 0-4.7861 3.222-8.6518 7.087-8.6518 1.749 0 3.406.8284 4.602 2.0249z" fill="url(#e)" opacity=".25"/><path d="m89.1013 63.5693-8.3855-6.6089-1.6522 2.0964 8.3855 6.6089z" fill="#302c34"/><path d="m80.1284 97.4419c-.2761 0-.4602-.1841-.5522-.4602s.092-.5522.3681-.6442c2.5771-.6443 4.8781-1.8409 6.903-3.4976.9204-.7363 1.8409-1.6567 2.5772-2.5771.1841-.2761.5522-.2761.7363-.092.2761.1841.2761.5522.092.7363-.8284 1.0124-1.7488 1.9328-2.7612 2.7612-2.1169 1.7488-4.602 2.9453-7.3632 3.6816.092.092 0 .092 0 .092z" fill="#000"/><path d="m79.7606 67.1606s-15.4627 13.714-12.5175 15.923c2.9453 2.2089 5.7985 2.485 5.7985 2.485z" fill="#df7d56"/></g></svg>