<svg id="visual" viewBox="0 0 1920 1080" width="1920" height="1080" xmlns="http://www.w3.org/2000/svg" xmlns:xlink="http://www.w3.org/1999/xlink" version="1.1"><rect x="0" y="0" width="1920" height="1080" fill="#f5f5f5"></rect><path d="M0 730L80 672.2C160 614.3 320 498.7 480 455C640 411.3 800 439.7 960 485.7C1120 531.7 1280 595.3 1440 592.3C1600 589.3 1760 519.7 1840 484.8L1920 450L1920 1081L1840 1081C1760 1081 1600 1081 1440 1081C1280 1081 1120 1081 960 1081C800 1081 640 1081 480 1081C320 1081 160 1081 80 1081L0 1081Z" fill="#ffffff" stroke-linecap="round" stroke-linejoin="miter"></path></svg>