<svg id="visual" viewBox="0 0 1920 1080" width="1920" height="1080" xmlns="http://www.w3.org/2000/svg" xmlns:xlink="http://www.w3.org/1999/xlink" version="1.1"><rect x="0" y="0" width="1920" height="1080" fill="#f5f5f5"></rect><path d="M0 182L64 195.7C128 209.3 256 236.7 384 223.8C512 211 640 158 768 146.7C896 135.3 1024 165.7 1152 186.5C1280 207.3 1408 218.7 1536 200.8C1664 183 1792 136 1856 112.5L1920 89L1920 0L1856 0C1792 0 1664 0 1536 0C1408 0 1280 0 1152 0C1024 0 896 0 768 0C640 0 512 0 384 0C256 0 128 0 64 0L0 0Z" fill="#ffffff" stroke-linecap="round" stroke-linejoin="miter"></path></svg>